<svg width="417" height="220" viewBox="0 0 417 220" fill="none" xmlns="http://www.w3.org/2000/svg">
<path d="M110.832 52.52V169H93.8592L35.7856 78.8112V169H19.1456V52.52H36.1184L94.192 142.376V52.52H110.832ZM172.397 170.165C164.521 170.165 157.421 168.445 151.098 165.006C144.886 161.457 140.005 156.52 136.455 150.197C132.905 143.763 131.13 136.219 131.13 127.566C131.13 118.803 132.961 111.204 136.621 104.77C140.282 98.3355 145.274 93.3989 151.597 89.96C157.921 86.4101 165.02 84.6352 172.897 84.6352C180.773 84.6352 187.873 86.4101 194.196 89.96C200.63 93.3989 205.677 98.3355 209.338 104.77C212.999 111.093 214.829 118.581 214.829 127.234C214.829 135.997 212.944 143.596 209.172 150.03C205.511 156.465 200.464 161.457 194.029 165.006C187.595 168.445 180.385 170.165 172.397 170.165ZM172.231 155.854C176.668 155.854 180.828 154.856 184.711 152.859C188.594 150.751 191.755 147.59 194.196 143.374C196.747 139.159 198.023 133.779 198.023 127.234C198.023 120.799 196.803 115.53 194.362 111.426C192.033 107.21 188.926 104.104 185.044 102.107C181.161 99.9995 177.001 98.9456 172.564 98.9456C168.237 98.9456 164.188 99.9995 160.417 102.107C156.756 104.104 153.761 107.21 151.431 111.426C149.101 115.641 147.937 121.021 147.937 127.566C147.937 134.001 149.046 139.325 151.265 143.541C153.594 147.645 156.589 150.751 160.25 152.859C163.911 154.856 167.905 155.854 172.231 155.854ZM296.676 99.944L294.846 100.443V49.192H310.654V169H296.343L295.178 156.52C292.405 160.292 288.633 163.509 283.863 166.171C279.204 168.834 273.491 170.165 266.724 170.165C259.181 170.165 252.58 168.39 246.922 164.84C241.376 161.29 236.994 156.298 233.777 149.864C230.671 143.43 229.118 135.942 229.118 127.4C229.118 118.858 230.671 111.37 233.777 104.936C236.994 98.5019 241.376 93.5099 246.922 89.96C252.58 86.4101 259.181 84.6352 266.724 84.6352C273.935 84.6352 280.036 86.1328 285.028 89.128C290.131 92.0123 294.014 95.6176 296.676 99.944ZM245.924 127.4C245.924 135.942 248.143 142.82 252.58 148.034C257.017 153.247 262.952 155.854 270.385 155.854C274.933 155.854 279.038 154.745 282.698 152.526C286.359 150.308 289.299 147.091 291.518 142.875C293.736 138.549 294.846 133.39 294.846 127.4C294.846 121.41 293.736 116.307 291.518 112.091C289.299 107.876 286.359 104.659 282.698 102.44C279.038 100.11 274.933 98.9456 270.385 98.9456C263.063 98.9456 257.128 101.553 252.58 106.766C248.143 111.98 245.924 118.858 245.924 127.4ZM370.477 170.165C362.49 170.165 355.39 168.334 349.178 164.674C343.077 160.902 338.251 155.743 334.701 149.198C331.262 142.653 329.543 135.165 329.543 126.734C329.543 118.636 331.262 111.426 334.701 105.102C338.14 98.7792 342.855 93.7872 348.845 90.1264C354.946 86.4656 361.824 84.6352 369.479 84.6352C377.244 84.6352 384.122 86.3547 390.112 89.7936C396.103 93.1216 400.762 97.8363 404.09 103.938C407.418 109.928 409.026 116.861 408.915 124.738C408.915 126.069 408.86 127.455 408.749 128.898C408.638 130.229 408.472 131.726 408.25 133.39H346.682C347.015 137.828 348.235 141.766 350.343 145.205C352.561 148.533 355.335 151.14 358.663 153.026C362.102 154.911 365.984 155.854 370.311 155.854C375.857 155.854 380.683 154.801 384.787 152.693C388.892 150.474 391.776 147.534 393.44 143.874L407.085 148.699C403.757 155.466 398.876 160.735 392.442 164.507C386.119 168.279 378.797 170.165 370.477 170.165ZM391.776 119.912C391.776 115.918 390.778 112.313 388.781 109.096C386.784 105.879 384.066 103.383 380.627 101.608C377.299 99.7221 373.528 98.7792 369.312 98.7792C365.541 98.7792 362.046 99.7221 358.829 101.608C355.723 103.383 353.061 105.879 350.842 109.096C348.734 112.202 347.403 115.807 346.848 119.912H391.776Z" fill="#FFE3BC"/>
<circle cx="27.5" cy="192.5" r="22" stroke="#FFE3BC" stroke-width="11"/>
<circle cx="101.5" cy="27.5" r="22" stroke="#FFE3BC" stroke-width="11"/>
<circle cx="302.5" cy="27.5" r="22" stroke="#FFE3BC" stroke-width="11"/>
</svg>
